<mxfile host="Electron" modified="2023-07-31T18:37:02.973Z" agent="Mozilla/5.0 (X11; Linux x86_64) AppleWebKit/537.36 (KHTML, like Gecko) draw.io/21.6.5 Chrome/114.0.5735.243 Electron/25.3.1 Safari/537.36" etag="mx3JaCex0VXhAxhciabW" version="21.6.5" type="device">
  <diagram name="Page-1" id="15A0uf0Z5WTdDWAAPhsG">
    <mxGraphModel dx="1120" dy="1033" grid="1" gridSize="10" guides="1" tooltips="1" connect="1" arrows="1" fold="1" page="1" pageScale="1" pageWidth="827" pageHeight="1169" math="0" shadow="0">
      <root>
        <mxCell id="0" />
        <mxCell id="1" parent="0" />
        <mxCell id="wqkbbfp0oJk5X_OLIA2T-31" style="edgeStyle=orthogonalEdgeStyle;rounded=0;orthogonalLoop=1;jettySize=auto;html=1;" edge="1" parent="1" source="wqkbbfp0oJk5X_OLIA2T-16" target="wqkbbfp0oJk5X_OLIA2T-27">
          <mxGeometry relative="1" as="geometry" />
        </mxCell>
        <mxCell id="wqkbbfp0oJk5X_OLIA2T-16" value="arg" style="rounded=0;whiteSpace=wrap;html=1;" vertex="1" parent="1">
          <mxGeometry x="120" y="240" width="40" height="40" as="geometry" />
        </mxCell>
        <mxCell id="wqkbbfp0oJk5X_OLIA2T-17" value="&#39;a;" style="rounded=0;whiteSpace=wrap;html=1;" vertex="1" parent="1">
          <mxGeometry x="120" y="360" width="40" height="40" as="geometry" />
        </mxCell>
        <mxCell id="wqkbbfp0oJk5X_OLIA2T-29" style="edgeStyle=orthogonalEdgeStyle;rounded=0;orthogonalLoop=1;jettySize=auto;html=1;" edge="1" parent="1" source="wqkbbfp0oJk5X_OLIA2T-18" target="wqkbbfp0oJk5X_OLIA2T-26">
          <mxGeometry relative="1" as="geometry" />
        </mxCell>
        <mxCell id="wqkbbfp0oJk5X_OLIA2T-18" value="vec" style="rounded=0;whiteSpace=wrap;html=1;" vertex="1" parent="1">
          <mxGeometry x="120" y="400" width="40" height="40" as="geometry" />
        </mxCell>
        <mxCell id="wqkbbfp0oJk5X_OLIA2T-19" value="&#39;b&#39;" style="rounded=0;whiteSpace=wrap;html=1;" vertex="1" parent="1">
          <mxGeometry x="200" y="440" width="40" height="40" as="geometry" />
        </mxCell>
        <mxCell id="wqkbbfp0oJk5X_OLIA2T-30" style="edgeStyle=orthogonalEdgeStyle;rounded=0;orthogonalLoop=1;jettySize=auto;html=1;entryX=0;entryY=0.5;entryDx=0;entryDy=0;" edge="1" parent="1" source="wqkbbfp0oJk5X_OLIA2T-21" target="wqkbbfp0oJk5X_OLIA2T-28">
          <mxGeometry relative="1" as="geometry" />
        </mxCell>
        <mxCell id="wqkbbfp0oJk5X_OLIA2T-21" value="vec" style="rounded=0;whiteSpace=wrap;html=1;" vertex="1" parent="1">
          <mxGeometry x="200" y="480" width="40" height="40" as="geometry" />
        </mxCell>
        <mxCell id="wqkbbfp0oJk5X_OLIA2T-22" value="&#39;c&#39;" style="rounded=0;whiteSpace=wrap;html=1;" vertex="1" parent="1">
          <mxGeometry x="240" y="600" width="40" height="40" as="geometry" />
        </mxCell>
        <mxCell id="wqkbbfp0oJk5X_OLIA2T-42" style="edgeStyle=orthogonalEdgeStyle;rounded=0;orthogonalLoop=1;jettySize=auto;html=1;entryX=0.5;entryY=0;entryDx=0;entryDy=0;" edge="1" parent="1" source="wqkbbfp0oJk5X_OLIA2T-25" target="wqkbbfp0oJk5X_OLIA2T-40">
          <mxGeometry relative="1" as="geometry" />
        </mxCell>
        <mxCell id="wqkbbfp0oJk5X_OLIA2T-25" value="vec" style="rounded=0;whiteSpace=wrap;html=1;" vertex="1" parent="1">
          <mxGeometry x="240" y="640" width="40" height="40" as="geometry" />
        </mxCell>
        <mxCell id="wqkbbfp0oJk5X_OLIA2T-26" value="cons" style="rounded=0;whiteSpace=wrap;html=1;" vertex="1" parent="1">
          <mxGeometry x="200" y="400" width="40" height="40" as="geometry" />
        </mxCell>
        <mxCell id="wqkbbfp0oJk5X_OLIA2T-27" value="cons" style="rounded=0;whiteSpace=wrap;html=1;" vertex="1" parent="1">
          <mxGeometry x="120" y="320" width="40" height="40" as="geometry" />
        </mxCell>
        <mxCell id="wqkbbfp0oJk5X_OLIA2T-28" value="cons" style="rounded=0;whiteSpace=wrap;html=1;" vertex="1" parent="1">
          <mxGeometry x="280" y="480" width="40" height="40" as="geometry" />
        </mxCell>
        <mxCell id="wqkbbfp0oJk5X_OLIA2T-34" value="&#39;d&#39;" style="rounded=0;whiteSpace=wrap;html=1;" vertex="1" parent="1">
          <mxGeometry x="320" y="600" width="40" height="40" as="geometry" />
        </mxCell>
        <mxCell id="wqkbbfp0oJk5X_OLIA2T-43" style="edgeStyle=orthogonalEdgeStyle;rounded=0;orthogonalLoop=1;jettySize=auto;html=1;" edge="1" parent="1" source="wqkbbfp0oJk5X_OLIA2T-36" target="wqkbbfp0oJk5X_OLIA2T-41">
          <mxGeometry relative="1" as="geometry" />
        </mxCell>
        <mxCell id="wqkbbfp0oJk5X_OLIA2T-36" value="vec" style="rounded=0;whiteSpace=wrap;html=1;" vertex="1" parent="1">
          <mxGeometry x="320" y="640" width="40" height="40" as="geometry" />
        </mxCell>
        <mxCell id="wqkbbfp0oJk5X_OLIA2T-38" style="edgeStyle=orthogonalEdgeStyle;rounded=0;orthogonalLoop=1;jettySize=auto;html=1;entryX=0.5;entryY=0;entryDx=0;entryDy=0;" edge="1" parent="1" source="wqkbbfp0oJk5X_OLIA2T-37" target="wqkbbfp0oJk5X_OLIA2T-22">
          <mxGeometry relative="1" as="geometry">
            <Array as="points">
              <mxPoint x="260" y="540" />
            </Array>
          </mxGeometry>
        </mxCell>
        <mxCell id="wqkbbfp0oJk5X_OLIA2T-39" style="edgeStyle=orthogonalEdgeStyle;rounded=0;orthogonalLoop=1;jettySize=auto;html=1;entryX=0.5;entryY=0;entryDx=0;entryDy=0;" edge="1" parent="1" source="wqkbbfp0oJk5X_OLIA2T-37" target="wqkbbfp0oJk5X_OLIA2T-34">
          <mxGeometry relative="1" as="geometry">
            <Array as="points">
              <mxPoint x="340" y="540" />
            </Array>
          </mxGeometry>
        </mxCell>
        <mxCell id="wqkbbfp0oJk5X_OLIA2T-48" style="edgeStyle=orthogonalEdgeStyle;rounded=0;orthogonalLoop=1;jettySize=auto;html=1;entryX=0.5;entryY=0;entryDx=0;entryDy=0;" edge="1" parent="1" source="wqkbbfp0oJk5X_OLIA2T-37" target="wqkbbfp0oJk5X_OLIA2T-46">
          <mxGeometry relative="1" as="geometry" />
        </mxCell>
        <mxCell id="wqkbbfp0oJk5X_OLIA2T-37" value="choice" style="rounded=0;whiteSpace=wrap;html=1;fillColor=#dae8fc;strokeColor=#6c8ebf;" vertex="1" parent="1">
          <mxGeometry x="280" y="520" width="40" height="40" as="geometry" />
        </mxCell>
        <mxCell id="wqkbbfp0oJk5X_OLIA2T-40" value="nil" style="rounded=0;whiteSpace=wrap;html=1;" vertex="1" parent="1">
          <mxGeometry x="240" y="720" width="40" height="40" as="geometry" />
        </mxCell>
        <mxCell id="wqkbbfp0oJk5X_OLIA2T-41" value="nil" style="rounded=0;whiteSpace=wrap;html=1;" vertex="1" parent="1">
          <mxGeometry x="320" y="720" width="40" height="40" as="geometry" />
        </mxCell>
        <mxCell id="wqkbbfp0oJk5X_OLIA2T-46" value="*" style="rounded=0;whiteSpace=wrap;html=1;" vertex="1" parent="1">
          <mxGeometry x="400" y="600" width="40" height="40" as="geometry" />
        </mxCell>
      </root>
    </mxGraphModel>
  </diagram>
</mxfile>
